HIERARCHY
ROOT Hips
{
	OFFSET 0.000000 35.082581 0.000000
	CHANNELS 6 Xposition Yposition Zposition Xrotation Yrotation Zrotation 
	JOINT Spine
	{
		OFFSET 0.000000 6.876099 0.125700
		CHANNELS 3 Xrotation Yrotation Zrotation
		JOINT Spine1
		{
			OFFSET 0.000000 5.730043 0.104720
			CHANNELS 3 Xrotation Yrotation Zrotation
			JOINT Spine1_split
			{
				OFFSET 0.000000 5.730043 0.104720
				CHANNELS 3 Xrotation Yrotation Zrotation
				JOINT Spine2
				{
					OFFSET 0.000000 5.730043 0.104720
					CHANNELS 3 Xrotation Yrotation Zrotation
					JOINT Neck
					{
						OFFSET 0.000000 10.314075 0.188496
						CHANNELS 3 Xrotation Yrotation Zrotation
						JOINT Head
						{
							OFFSET 0.000000 7.643700 -2.377400
							CHANNELS 3 Xrotation Yrotation Zrotation
							JOINT HeadTop_End
							{
								OFFSET 0.000000 43.788605 -13.619600
								CHANNELS 3 Xrotation Yrotation Zrotation
								End Site
								{
									OFFSET 0.000000 0.000000 0.000000
								}
							}
						}
					}
					JOINT LeftShoulder
					{
						OFFSET 2.196100 4.412489 0.087492
						CHANNELS 3 Xrotation Yrotation Zrotation
						JOINT LeftShoulder_split
						{
							OFFSET 2.196100 4.412489 0.087492
							CHANNELS 3 Xrotation Yrotation Zrotation
							JOINT LeftArm
							{
								OFFSET 8.771219 -2.981674 -0.026999
								CHANNELS 3 Xrotation Yrotation Zrotation
								JOINT LeftForeArm
								{
									OFFSET 8.512804 0.000000 -0.000000
									CHANNELS 3 Xrotation Yrotation Zrotation
									JOINT LeftHand
									{
										OFFSET 18.484802 0.000000 -0.000000
										CHANNELS 3 Xrotation Yrotation Zrotation
										JOINT LeftHandThumb1
										{
											OFFSET 2.499420 -1.158070 2.653252
											CHANNELS 3 Xrotation Yrotation Zrotation
											JOINT LeftHandThumb2
											{
												OFFSET 2.370079 -1.368366 1.368366
												CHANNELS 3 Xrotation Yrotation Zrotation
												JOINT LeftHandThumb3
												{
													OFFSET 2.676727 -1.545410 1.545409
													CHANNELS 3 Xrotation Yrotation Zrotation
													JOINT LeftHandThumb4
													{
														OFFSET 1.692226 -0.977005 0.977007
														CHANNELS 3 Xrotation Yrotation Zrotation
														End Site
														{
															OFFSET 0.000000 0.000000 0.000000
														}
													}
												}
											}
										}
										JOINT LeftHandIndex1
										{
											OFFSET 7.924831 -0.457527 2.345128
											CHANNELS 3 Xrotation Yrotation Zrotation
											JOINT LeftHandIndex2
											{
												OFFSET 3.643303 0.000000 0.000000
												CHANNELS 3 Xrotation Yrotation Zrotation
												JOINT LeftHandIndex3
												{
													OFFSET 3.810799 0.000000 0.000000
													CHANNELS 3 Xrotation Yrotation Zrotation
													JOINT LeftHandIndex4
													{
														OFFSET 2.403702 0.000000 0.000000
														CHANNELS 3 Xrotation Yrotation Zrotation
														End Site
														{
															OFFSET 0.000000 0.000000 0.000000
														}
													}
												}
											}
										}
										JOINT LeftHandMiddle1
										{
											OFFSET 8.563995 0.000000 -0.000000
											CHANNELS 3 Xrotation Yrotation Zrotation
											JOINT LeftHandMiddle2
											{
												OFFSET 3.861618 0.000000 0.000000
												CHANNELS 3 Xrotation Yrotation Zrotation
												JOINT LeftHandMiddle3
												{
													OFFSET 3.701603 0.000000 0.000000
													CHANNELS 3 Xrotation Yrotation Zrotation
													JOINT LeftHandMiddle4
													{
														OFFSET 2.322544 0.000000 0.000000
														CHANNELS 3 Xrotation Yrotation Zrotation
														End Site
														{
															OFFSET 0.000000 0.000000 0.000000
														}
													}
												}
											}
										}
										JOINT LeftHandRing1
										{
											OFFSET 8.426460 -0.424637 -3.286992
											CHANNELS 3 Xrotation Yrotation Zrotation
											JOINT LeftHandRing2
											{
												OFFSET 3.126408 0.000000 0.000000
												CHANNELS 3 Xrotation Yrotation Zrotation
												JOINT LeftHandRing3
												{
													OFFSET 3.085026 0.000000 0.000000
													CHANNELS 3 Xrotation Yrotation Zrotation
													JOINT LeftHandRing4
													{
														OFFSET 1.644005 0.000000 0.000000
														CHANNELS 3 Xrotation Yrotation Zrotation
														End Site
														{
															OFFSET 0.000000 0.000000 0.000000
														}
													}
												}
											}
										}
									}
								}
							}
						}
					}
					JOINT RightShoulder
					{
						OFFSET -2.196100 4.412496 0.070690
						CHANNELS 3 Xrotation Yrotation Zrotation
						JOINT RightShoulder_split
						{
							OFFSET -2.196100 4.412496 0.070690
							CHANNELS 3 Xrotation Yrotation Zrotation
							JOINT RightArm
							{
								OFFSET -8.771282 -2.981682 -0.094208
								CHANNELS 3 Xrotation Yrotation Zrotation
								JOINT RightForeArm
								{
									OFFSET -8.494598 0.000000 0.000000
									CHANNELS 3 Xrotation Yrotation Zrotation
									JOINT RightHand
									{
										OFFSET -18.483803 0.000000 0.000001
										CHANNELS 3 Xrotation Yrotation Zrotation
										JOINT RightHandThumb1
										{
											OFFSET -2.527351 -1.008072 2.575253
											CHANNELS 3 Xrotation Yrotation Zrotation
											JOINT RightHandThumb2
											{
												OFFSET -2.321518 -1.340328 1.340329
												CHANNELS 3 Xrotation Yrotation Zrotation
												JOINT RightHandThumb3
												{
													OFFSET -2.657753 -1.534454 1.534455
													CHANNELS 3 Xrotation Yrotation Zrotation
													JOINT RightHandThumb4
													{
														OFFSET -1.807510 -1.043568 1.043567
														CHANNELS 3 Xrotation Yrotation Zrotation
														End Site
														{
															OFFSET 0.000000 0.000000 0.000000
														}
													}
												}
											}
										}
										JOINT RightHandIndex1
										{
											OFFSET -8.811420 0.015533 2.887987
											CHANNELS 3 Xrotation Yrotation Zrotation
											JOINT RightHandIndex2
											{
												OFFSET -3.537502 0.000000 0.000000
												CHANNELS 3 Xrotation Yrotation Zrotation
												JOINT RightHandIndex3
												{
													OFFSET -3.356201 0.000000 0.000000
													CHANNELS 3 Xrotation Yrotation Zrotation
													JOINT RightHandIndex4
													{
														OFFSET -1.933098 0.000000 0.000000
														CHANNELS 3 Xrotation Yrotation Zrotation
														End Site
														{
															OFFSET 0.000000 0.000000 0.000000
														}
													}
												}
											}
										}
										JOINT RightHandMiddle1
										{
											OFFSET -8.178135 0.000000 0.000000
											CHANNELS 3 Xrotation Yrotation Zrotation
											JOINT RightHandMiddle2
											{
												OFFSET -3.901302 0.000000 0.000000
												CHANNELS 3 Xrotation Yrotation Zrotation
												JOINT RightHandMiddle3
												{
													OFFSET -3.909599 0.000000 0.000000
													CHANNELS 3 Xrotation Yrotation Zrotation
													JOINT RightHandMiddle4
													{
														OFFSET -2.376003 0.000000 0.000000
														CHANNELS 3 Xrotation Yrotation Zrotation
														End Site
														{
															OFFSET 0.000000 0.000000 0.000000
														}
													}
												}
											}
										}
										JOINT RightHandRing1
										{
											OFFSET -7.559013 0.014137 -2.865403
											CHANNELS 3 Xrotation Yrotation Zrotation
											JOINT RightHandRing2
											{
												OFFSET -3.449306 0.000000 0.000000
												CHANNELS 3 Xrotation Yrotation Zrotation
												JOINT RightHandRing3
												{
													OFFSET -3.362106 0.000000 0.000000
													CHANNELS 3 Xrotation Yrotation Zrotation
													JOINT RightHandRing4
													{
														OFFSET -2.076401 0.000000 0.000000
														CHANNELS 3 Xrotation Yrotation Zrotation
														End Site
														{
															OFFSET 0.000000 0.000000 0.000000
														}
													}
												}
											}
										}
									}
								}
							}
						}
					}
				}
			}
		}
	}
	JOINT LeftUpLeg
	{
		OFFSET 10.205400 -3.823500 0.155100
		CHANNELS 3 Xrotation Yrotation Zrotation
		JOINT LeftLeg
		{
			OFFSET 0.708757 -12.982077 0.567790
			CHANNELS 3 Xrotation Yrotation Zrotation
			JOINT LeftFoot
			{
				OFFSET -0.708756 -10.717838 -2.184338
				CHANNELS 3 Xrotation Yrotation Zrotation
				JOINT LeftToeBase
				{
					OFFSET 0.108149 -7.191104 7.560241
					CHANNELS 3 Xrotation Yrotation Zrotation
					JOINT LeftToe_End
					{
						OFFSET 0.070230 0.081724 4.490308
						CHANNELS 3 Xrotation Yrotation Zrotation
						End Site
						{
							OFFSET 0.000000 0.000000 0.000000
						}
					}
				}
			}
		}
	}
	JOINT RightUpLeg
	{
		OFFSET -10.205400 -3.823500 0.005500
		CHANNELS 3 Xrotation Yrotation Zrotation
		JOINT RightLeg
		{
			OFFSET -0.708756 -12.982134 0.610632
			CHANNELS 3 Xrotation Yrotation Zrotation
			JOINT RightFoot
			{
				OFFSET 0.708754 -10.717769 -1.945823
				CHANNELS 3 Xrotation Yrotation Zrotation
				JOINT RightToeBase
				{
					OFFSET -0.108140 -7.191069 7.372968
					CHANNELS 3 Xrotation Yrotation Zrotation
					JOINT RightToe_End
					{
						OFFSET -0.070227 0.081735 4.479403
						CHANNELS 3 Xrotation Yrotation Zrotation
						End Site
						{
							OFFSET 0.000000 0.000000 0.000000
						}
					}
				}
			}
		}
	}
}
MOTION
Frames: 4
Frame Time: 0.016667
-1.574380 27.008938 2.221639 19.354518 -43.395156 5.949007 0.748671 6.162259 -0.062111 -1.588676 4.492984 -2.192220 0.000000 0.000000 0.000000 -1.597447 -0.195616 1.993554 12.118093 6.829924 -4.433337 -0.737346 20.027399 8.229672 0.000000 0.000000 0.000000 3.544246 4.756000 -11.623088 0.000000 0.000000 0.000000 -54.038852 -33.116432 -50.381531 -0.000036 -81.882364 -0.000012 -58.768375 25.992645 38.870333 -14.557462 10.837967 12.229969 0.749542 -4.257823 13.305493 -10.783737 -23.179359 -4.132436 -0.000002 -0.000000 -0.000004 -0.809535 2.578164 -31.496441 3.095880 5.163790 -61.866966 0.503787 2.378640 -23.913127 -0.000000 0.000000 -0.000000 -2.430853 1.729214 -41.460915 2.952344 5.084734 -60.259931 1.321761 3.707996 -39.227863 0.000000 0.000000 -0.000000 -6.054131 -0.166588 -49.857570 3.046241 5.137048 -61.313946 0.351717 2.001096 -19.935135 0.000000 -0.000000 -0.000002 -14.733700 2.115991 -4.463126 0.000000 0.000000 0.000000 72.337550 138.834031 -52.653519 0.000002 29.080698 0.000003 -49.752461 -7.371294 -31.498756 8.377141 -4.904147 11.021984 21.620228 -18.183907 -18.379196 -0.702855 -49.821234 -32.535135 0.000001 0.000001 -0.000003 0.558935 -4.406590 25.436649 1.653045 -3.560354 49.799097 1.737725 -3.630059 51.149214 0.000001 0.000000 0.000002 10.969836 -12.875567 52.800829 6.387594 -4.324409 111.833679 0.247375 -1.499130 18.739143 -0.000002 -0.000000 -0.000000 3.705096 -7.151322 57.622440 5.328202 -4.608678 98.293464 1.627348 -3.538518 49.383989 -0.000001 -0.000000 0.000001 -85.358793 -17.663450 17.518831 53.747568 -11.301989 4.341452 25.071237 -2.786950 -19.373377 -0.751244 0.011984 -0.913380 0.000000 0.000000 -0.000000 -16.954177 -9.333378 -18.343479 53.414514 -0.233657 5.343055 -34.733435 -28.368759 24.865324 -1.117513 -0.000005 0.000000 0.000000 0.000000 -0.000000 
-1.633303 27.727402 0.603387 20.197192 -43.223046 6.636035 1.013265 5.975649 0.105388 -1.410114 4.462637 -2.203675 0.000000 0.000000 0.000000 -1.413475 -0.229850 1.985881 11.799610 6.804072 -4.313534 -1.333354 19.778520 8.281248 0.000001 -0.000001 0.000002 3.460879 4.416652 -11.409140 0.000000 0.000000 0.000000 -54.824627 -33.117760 -50.523411 -0.000087 -81.497032 -0.000020 -58.132307 25.445132 38.283992 -14.557461 10.837968 12.229970 0.749537 -4.257823 13.305495 -10.783737 -23.179359 -4.132435 -0.000000 -0.000001 -0.000002 -0.809532 2.578164 -31.496447 3.095881 5.163793 -61.866972 0.503787 2.378640 -23.913131 -0.000001 0.000001 -0.000002 -2.430853 1.729216 -41.460918 2.952343 5.084734 -60.259931 1.321760 3.707995 -39.227863 0.000000 -0.000001 -0.000003 -6.054126 -0.166588 -49.857574 3.046243 5.137045 -61.313946 0.351714 2.001099 -19.935133 0.000000 -0.000000 0.000002 -14.724954 2.110627 -4.402700 0.000000 0.000000 0.000000 72.361988 139.310560 -53.074610 0.000003 28.936919 -0.000004 -48.762421 -6.817495 -31.328551 8.377142 -4.904146 11.021986 21.620228 -18.183910 -18.379199 -0.702853 -49.821234 -32.535135 0.000002 0.000007 0.000002 0.558935 -4.406590 25.436649 1.653046 -3.560355 49.799094 1.737725 -3.630059 51.149217 0.000000 -0.000000 0.000000 10.969837 -12.875567 52.800832 6.387593 -4.324409 111.833679 0.247373 -1.499127 18.739143 0.000002 0.000000 0.000001 3.705097 -7.151324 57.622440 5.328202 -4.608676 98.293471 1.627347 -3.538518 49.383989 0.000002 -0.000001 -0.000001 -86.827707 -13.693700 14.857907 61.676287 -11.189956 2.484541 18.186048 -1.767585 -19.334806 -1.875011 -0.070072 2.139359 -0.000000 -0.000005 0.000000 -20.766589 -9.327389 -15.161242 54.869464 -2.078786 6.407847 -35.100281 -27.306024 20.645814 -2.251859 0.000006 -0.000004 -0.000001 -0.000000 0.000000 
-1.692647 28.457298 -0.991006 21.451432 -43.665191 7.634491 1.145485 6.225452 0.211109 -1.310872 4.621465 -2.233292 0.000000 0.000000 0.000000 -1.314405 -0.079142 1.955559 11.539367 6.719177 -4.205104 -1.771504 19.427322 8.399854 -0.000000 -0.000000 -0.000000 3.451688 4.257305 -11.406521 0.000000 0.000000 0.000000 -55.761531 -33.679318 -50.844850 -0.000046 -80.674192 -0.000007 -57.419276 24.773829 37.437991 -14.557454 10.837966 12.229972 0.749541 -4.257824 13.305493 -10.783737 -23.179360 -4.132433 0.000001 0.000003 0.000000 -0.809531 2.578165 -31.496444 3.095878 5.163792 -61.866972 0.503787 2.378640 -23.913131 0.000000 -0.000001 -0.000000 -2.430852 1.729215 -41.460915 2.952343 5.084736 -60.259931 1.321761 3.707994 -39.227863 -0.000000 0.000000 -0.000001 -6.054127 -0.166587 -49.857570 3.046243 5.137046 -61.313952 0.351714 2.001099 -19.935135 -0.000000 0.000001 0.000002 -14.702146 2.142288 -4.298211 0.000000 0.000000 0.000000 72.738646 139.648982 -53.738999 -0.000001 28.981982 -0.000001 -47.783426 -6.248428 -31.304164 8.377141 -4.904146 11.021989 21.620226 -18.183907 -18.379197 -0.702854 -49.821234 -32.535135 -0.000002 0.000001 0.000002 0.558935 -4.406589 25.436654 1.653045 -3.560354 49.799097 1.737725 -3.630060 51.149217 -0.000001 -0.000000 0.000002 10.969834 -12.875564 52.800829 6.387596 -4.324410 111.833686 0.247373 -1.499128 18.739138 -0.000001 -0.000001 -0.000000 3.705096 -7.151324 57.622433 5.328202 -4.608679 98.293471 1.627349 -3.538518 49.383989 -0.000000 -0.000001 0.000001 -86.809683 -9.092687 12.394283 67.725383 -10.839771 1.108486 12.265217 -2.297233 -19.044492 -4.871429 -0.464561 5.434333 -0.000000 -0.000003 0.000000 -24.950935 -9.649797 -12.523596 55.225928 -3.763431 7.739758 -34.170333 -24.820090 16.384659 -4.032358 0.000010 -0.000002 -0.000001 -0.000000 -0.000000 
-1.750942 29.095325 -2.549325 23.093095 -44.642451 8.857326 1.145510 6.840332 0.317739 -1.289600 4.928879 -2.265304 0.000000 0.000000 0.000000 -1.295693 0.217591 1.919091 11.325054 6.588896 -4.114613 -2.085922 19.014975 8.543327 -0.000001 -0.000000 0.000000 3.505659 4.264385 -11.584094 0.000000 0.000000 0.000000 -56.751902 -34.575493 -51.320884 -0.000014 -79.627629 0.000013 -56.773174 24.062591 36.543363 -14.557457 10.837967 12.229975 0.749543 -4.257824 13.305495 -10.783731 -23.179359 -4.132439 -0.000003 0.000003 -0.000002 -0.809531 2.578163 -31.496444 3.095881 5.163792 -61.866972 0.503787 2.378641 -23.913129 -0.000000 -0.000001 0.000003 -2.430850 1.729215 -41.460922 2.952344 5.084736 -60.259931 1.321762 3.707996 -39.227860 0.000000 -0.000000 0.000002 -6.054123 -0.166588 -49.857567 3.046243 5.137045 -61.313952 0.351714 2.001098 -19.935133 0.000000 0.000001 0.000001 -14.671339 2.216737 -4.184635 0.000000 0.000000 0.000000 73.273716 139.812934 -54.505377 0.000000 29.166154 -0.000015 -46.933570 -5.789916 -31.371773 8.377142 -4.904149 11.021986 21.620226 -18.183907 -18.379201 -0.702853 -49.821234 -32.535135 0.000002 0.000001 -0.000002 0.558935 -4.406590 25.436651 1.653046 -3.560355 49.799097 1.737725 -3.630060 51.149207 0.000000 0.000000 0.000002 10.969836 -12.875567 52.800829 6.387595 -4.324411 111.833679 0.247369 -1.499130 18.739141 0.000000 0.000000 0.000001 3.705096 -7.151324 57.622433 5.328203 -4.608678 98.293464 1.627344 -3.538519 49.383985 0.000001 0.000000 -0.000001 -85.988004 -4.142019 9.573425 72.941940 -8.793219 0.267054 6.276987 -5.458051 -16.362217 -5.284502 -0.538466 5.801643 -0.000000 -0.000004 0.000001 -29.129538 -10.411816 -10.442522 54.683113 -5.438221 9.297888 -32.219621 -20.536442 12.510977 -5.043713 0.000014 0.000008 0.000000 0.000000 -0.000000 
